<?xml version="1.0" encoding="UTF-8"?>
<svg id="Layer_2" xmlns="http://www.w3.org/2000/svg" viewBox="0 0 770.21 322.82">
  <defs>
    <style>
      .cls-1 {
        fill: #fff;
      }
    </style>
  </defs>
  <g id="Layer_1-2" data-name="Layer_1">
    <g>
      <path class="cls-1" d="M442.96,154.97s-86.1-14.74-222.08,11.41C117.35,186.27,0,240.13,0,240.13h450.39s.13-6.92-1.23-43.63c-1.05-28.39-6.2-41.54-6.2-41.54Z"/>
      <path class="cls-1" d="M492.33,124.93l-67.74-25.74,14.94,39.01s-77.16-11.9-170.17,2.56c-91.13,14.17-198.58,59.02-198.58,59.02,0,0,211.03-116.06,282.07-143.35C443,21.81,558.73,0,558.73,0l-66.39,124.93Z"/>
      <g>
        <path class="cls-1" d="M12.29,310.08v-38.73H0v-5.42h30.3v5.42h-12.29v38.73h-5.72Z"/>
        <path class="cls-1" d="M36.63,310.08v-44.16h13.67c2.93,0,5.49.47,7.68,1.42,2.19.95,3.89,2.41,5.09,4.38,1.2,1.98,1.81,4.52,1.81,7.63s-.63,5.56-1.88,7.6c-1.26,2.04-3.08,3.65-5.47,4.83l9.46,18.29h-6.99l-8.55-17.22h-8.8v17.22h-6.02ZM42.65,287.49h7.59c2.87,0,5.04-.73,6.49-2.18,1.46-1.45,2.18-3.44,2.18-5.96s-.73-4.55-2.18-5.96c-1.46-1.41-3.62-2.11-6.49-2.11h-7.59v16.21Z"/>
        <path class="cls-1" d="M86.44,271.78h1.69l-12.95,38.29h-6.02l15.12-44.16h6.02l15.12,44.16h-6.02l-12.95-38.29ZM96.32,298.15h-18.07v-5.42h18.07v5.42Z"/>
        <path class="cls-1" d="M111.26,310.08v-44.16h6.21l20.78,33.06v-33.06h5.78v44.16h-4.88l-22.17-34.89v34.89h-5.72Z"/>
        <path class="cls-1" d="M166.32,310.96c-1.75,0-3.49-.14-5.24-.41-1.75-.27-3.36-.63-4.85-1.06-1.49-.43-2.72-.89-3.7-1.37l.78-6.37c1.08.55,2.39,1.11,3.93,1.7,1.54.59,3.2,1.08,4.98,1.48,1.79.4,3.59.6,5.42.6,2.71,0,4.86-.52,6.46-1.56s2.39-2.67,2.39-4.87c0-1.66-.4-3.02-1.2-4.08-.8-1.06-2.01-1.97-3.63-2.73-1.62-.76-3.64-1.51-6.07-2.27-2.31-.71-4.44-1.56-6.39-2.54-1.95-.98-3.51-2.29-4.68-3.94-1.17-1.65-1.76-3.84-1.76-6.58,0-2.33.58-4.4,1.73-6.2,1.15-1.8,2.85-3.2,5.09-4.21,2.24-1.01,4.98-1.51,8.24-1.51,2.77,0,5.32.32,7.64.95,2.32.63,4.23,1.32,5.74,2.08l-.6,6.37c-2.29-1.43-4.47-2.45-6.55-3.06-2.08-.61-4.23-.91-6.46-.91-2.47,0-4.51.48-6.13,1.45-1.62.97-2.42,2.54-2.42,4.73,0,1.47.36,2.68,1.08,3.61s1.8,1.73,3.22,2.4,3.2,1.33,5.33,2c2.93.93,5.45,1.98,7.56,3.17,2.11,1.19,3.72,2.65,4.85,4.38,1.12,1.74,1.69,3.88,1.69,6.45,0,1.89-.34,3.6-1.02,5.11-.68,1.51-1.71,2.81-3.07,3.88-1.37,1.07-3.08,1.89-5.14,2.46-2.06.57-4.46.85-7.21.85Z"/>
        <path class="cls-1" d="M190.06,310.08v-44.16h25.72v5.42h-20v12.93h15.42v5.42h-15.42v20.38h-5.72Z"/>
        <path class="cls-1" d="M222.16,310.08v-44.16h13.67c2.93,0,5.49.47,7.68,1.42,2.19.95,3.89,2.41,5.09,4.38,1.2,1.98,1.81,4.52,1.81,7.63s-.63,5.56-1.88,7.6c-1.26,2.04-3.08,3.65-5.47,4.83l9.46,18.29h-6.99l-8.55-17.22h-8.8v17.22h-6.02ZM228.19,287.49h7.59c2.87,0,5.04-.73,6.49-2.18,1.46-1.45,2.18-3.44,2.18-5.96s-.73-4.55-2.18-5.96c-1.46-1.41-3.62-2.11-6.49-2.11h-7.59v16.21Z"/>
        <path class="cls-1" d="M277.47,310.96c-4.02,0-7.59-.94-10.72-2.82-3.13-1.88-5.59-4.54-7.38-7.98-1.79-3.44-2.68-7.49-2.68-12.16s.89-8.72,2.68-12.16c1.79-3.44,4.25-6.1,7.38-7.98,3.13-1.88,6.71-2.82,10.72-2.82s7.59.94,10.72,2.82c3.13,1.88,5.59,4.54,7.38,7.98,1.79,3.44,2.68,7.49,2.68,12.16s-.89,8.72-2.68,12.16c-1.79,3.44-4.25,6.1-7.38,7.98-3.13,1.88-6.71,2.82-10.72,2.82ZM277.47,305.16c3.23,0,5.93-.76,8.1-2.29,2.17-1.52,3.8-3.59,4.89-6.18,1.09-2.6,1.64-5.49,1.64-8.69s-.55-6.09-1.64-8.69c-1.09-2.6-2.73-4.66-4.89-6.18-2.17-1.52-4.87-2.29-8.1-2.29s-5.93.76-8.1,2.29c-2.17,1.52-3.8,3.59-4.89,6.18-1.09,2.6-1.64,5.49-1.64,8.69s.55,6.09,1.64,8.69c1.09,2.6,2.73,4.66,4.89,6.18,2.17,1.52,4.87,2.29,8.1,2.29Z"/>
        <path class="cls-1" d="M306.08,310.08v-44.16h6.2l20.78,33.06v-33.06h5.78v44.16h-4.88l-22.17-34.89v34.89h-5.72Z"/>
        <path class="cls-1" d="M357.46,310.08v-38.73h-12.29v-5.42h30.3v5.42h-12.29v38.73h-5.72Z"/>
        <path class="cls-1" d="M391.44,271.78h1.69l-12.95,38.29h-6.02l15.12-44.16h6.02l15.12,44.16h-6.02l-12.95-38.29ZM401.32,298.15h-18.07v-5.42h18.07v5.42Z"/>
        <path class="cls-1" d="M416.26,310.08v-44.16h5.72v38.73h19.34v5.42h-25.06Z"/>
        <path class="cls-1" d="M447.04,310.08v-44.16h5.57l.15,44.16h-5.72Z"/>
      </g>
      <path class="cls-1" d="M770.17,322.82s-147.79,0-147.79,0c.15-61.12,2.93-88.71-27.11-126.96-13.53-17.24-16.39-21.79-46.21-44.16-17.78-13.34-44.99-22.83-44.99-22.83,0,0,26.28-49.09,26.39-49.3.72-1.4,39.79,10.92,43.77,12.04,19.49,5.48,38.44,12.9,56.49,22.07,36.11,18.33,68.71,43.63,95.16,74.32,30.1,34.93,42.96,77.36,44.24,122.98.16,5.65.05,11.85.05,11.85ZM632.09,314.03h5.93v-41.9h.14l17.92,41.9h3.6l17.92-41.9h.14v41.9h5.93v-49.94h-8.61l-17.07,39.15h-.14l-16.93-39.15h-8.82v49.94ZM696.07,314.03h5.93v-49.94h-5.93v49.94ZM714.41,314.03h5.93v-41.48h.14l28.92,41.48h7.48v-49.94h-5.93v41.48h-.14l-28.92-41.48h-7.48v49.94Z"/>
      <path class="cls-1" d="M549.2,172.46c11.05,9.83,36.91,28.13,47.88,61.34,14.45,43.74,8.3,89.02,8.3,89.02h-144.24s4.99-39.02,4.15-95.82c-.74-50.12-13.39-106.28-13.39-106.28,42.42,15.41,69.83,27.05,96.44,50.99.85.76.02,0,.86.75ZM473.26,313.9h32.59v-5.49h-26.67v-17.74h23.72v-5.49h-23.72v-15.62h25.41v-5.49h-31.32v49.83ZM515,313.9h5.91v-22.38h7.6l13.51,22.38h7.25l-14.15-22.94c3.89-.61,6.94-2.04,9.15-4.29,2.2-2.25,3.31-5.21,3.31-8.87,0-3.1-.59-5.55-1.76-7.36-1.17-1.81-2.7-3.18-4.57-4.12-1.88-.94-4-1.55-6.37-1.83-2.37-.28-4.75-.42-7.14-.42h-12.74v49.83ZM520.91,269.56h8.3c1.45,0,2.9.09,4.33.28,1.43.19,2.72.58,3.87,1.16,1.15.59,2.08,1.42,2.78,2.5.7,1.08,1.06,2.51,1.06,4.29,0,2.07-.48,3.65-1.44,4.75-.96,1.1-2.18,1.91-3.66,2.43-1.48.52-3.1.82-4.86.91-1.76.1-3.46.14-5.1.14h-5.28v-16.47ZM552.23,313.9h6.69l5.14-12.25h24.92l5.07,12.25h6.9l-21.18-49.83h-5.56l-21.96,49.83ZM586.71,296.17h-20.34l10.35-24.49h.14l9.85,24.49Z"/>
    </g>
  </g>
</svg>